<?xml version="1.0" encoding="UTF-8"?>
<svg version="1.1" xmlns="http://www.w3.org/2000/svg" width="30" height="30">
<path d="M0 0 C4.56370686 2.06514109 8.21552009 5.27637671 10 10 C10.78304269 15.16456248 10.7941874 19.50729569 7.8125 23.9375 C4.85091571 27.42558816 2.37517081 29.6398804 -2.29296875 30.34765625 C-7.77070289 30.67085085 -11.37172549 29.99098779 -15.59375 26.40625 C-19.1472628 22.8527372 -20.20662095 20.09739878 -20.5 15.125 C-20.33433954 9.83175378 -18.70727168 6.70727168 -15 3 C-10.66324398 -0.84112676 -5.52279774 -0.92190228 0 0 Z M-16.8125 7.0625 C-18.92684978 12.29273366 -18.92684978 17.70726634 -16.8125 22.9375 C-14.02985749 26.10395527 -11.91625765 27.76954397 -7.62890625 28.28515625 C-2.67341156 28.45451194 1.12011628 28.40959478 5 25 C8.40959478 21.12011628 8.45451194 17.32658844 8.28515625 12.37109375 C7.76954397 8.08374235 6.10395527 5.97014251 2.9375 3.1875 C-4.36131709 0.23691437 -11.54340281 1.06663078 -16.8125 7.0625 Z " fill="#FF2E45" transform="translate(20,0)"/>
<path d="M0 0 C3 0.125 3 0.125 4 1.125 C4.125 4.125 4.125 4.125 4 7.125 C3 8.125 3 8.125 0 8.25 C-3 8.125 -3 8.125 -4 7.125 C-4.125 4.125 -4.125 4.125 -4 1.125 C-3 0.125 -3 0.125 0 0 Z " fill="#FF3046" transform="translate(15,10.875)"/>
</svg>
